HIERARCHY
ROOT Hips
{
  OFFSET 13.6774 106.653 -34.4427
  CHANNELS 6 Xposition Yposition Zposition Zrotation Xrotation Yrotation
  JOINT ToSpine
  {
    OFFSET -2.69724 7.43032 -0.144315
    CHANNELS 3 Zrotation Xrotation Yrotation
    JOINT Spine
    {
      OFFSET -0.0310711 10.7595 1.96963
      CHANNELS 3 Zrotation Xrotation Yrotation
      JOINT Spine1
      {
        OFFSET 19.9056 3.91189 0.764692
        CHANNELS 3 Zrotation Xrotation Yrotation
        JOINT Neck
        {
          OFFSET 25.9749 7.03908 -0.130764
          CHANNELS 3 Zrotation Xrotation Yrotation
          JOINT Head
          {
            OFFSET 9.52751 0.295786 -0.907742
            CHANNELS 3 Zrotation Xrotation Yrotation
            End Site
            {
              OFFSET 16.4037 0.713936 2.7358
            }
          }
        }
        JOINT LeftShoulder
        {
          OFFSET 17.7449 4.33886 11.7777
          CHANNELS 3 Zrotation Xrotation Yrotation
          JOINT LeftArm
          {
            OFFSET 0.911315 1.27913 9.80584
            CHANNELS 3 Zrotation Xrotation Yrotation
            JOINT LeftForeArm
            {
              OFFSET 28.6126 1.18197 -3.53199
              CHANNELS 3 Zrotation Xrotation Yrotation
              JOINT LeftHand
              {
                OFFSET 27.5088 0.0218783 0.327423
                CHANNELS 3 Zrotation Xrotation Yrotation
                End Site
                {
                  OFFSET 18.6038 -0.000155887 0.382096
                }
              }
            }
          }
        }
        JOINT RightShoulder
        {
          OFFSET 17.1009 2.89543 -12.2328
          CHANNELS 3 Zrotation Xrotation Yrotation
          JOINT RightArm
          {
            OFFSET 1.4228 0.178766 -10.211
            CHANNELS 3 Zrotation Xrotation Yrotation
            JOINT RightForeArm
            {
              OFFSET 28.733 1.87905 2.64907
              CHANNELS 3 Zrotation Xrotation Yrotation
              JOINT RightHand
              {
                OFFSET 27.4588 0.290562 -0.101845
                CHANNELS 3 Zrotation Xrotation Yrotation
                End Site
                {
                  OFFSET 17.8396 -0.255518 -0.000602873
                }
              }
            }
          }
        }
      }
    }
  }
  JOINT LeftUpLeg
  {
    OFFSET -5.61296 -2.22332 -10.2353
    CHANNELS 3 Zrotation Xrotation Yrotation
    JOINT LeftLeg
    {
      OFFSET 2.56703 -44.7417 -7.93097
      CHANNELS 3 Zrotation Xrotation Yrotation
      JOINT LeftFoot
      {
        OFFSET 3.16933 -46.5642 -3.96578
        CHANNELS 3 Zrotation Xrotation Yrotation
        JOINT LeftToeBase
        {
          OFFSET 0.346054 -6.02161 12.8035
          CHANNELS 3 Zrotation Xrotation Yrotation
          End Site
          {
            OFFSET 0.134235 -1.35082 5.13018
          }
        }
      }
    }
  }
  JOINT RightUpLeg
  {
    OFFSET -5.7928 -1.72406 10.6446
    CHANNELS 3 Zrotation Xrotation Yrotation
    JOINT RightLeg
    {
      OFFSET -2.57161 -44.7178 -7.85259
      CHANNELS 3 Zrotation Xrotation Yrotation
      JOINT RightFoot
      {
        OFFSET -3.10148 -46.5936 -4.03391
        CHANNELS 3 Zrotation Xrotation Yrotation
        JOINT RightToeBase
        {
          OFFSET -0.0828122 -6.13587 12.8035
          CHANNELS 3 Zrotation Xrotation Yrotation
          End Site
          {
            OFFSET -0.131328 -1.35082 5.13018
          }
        }
      }
    }
  }
}
MOTION
Frames: 12
Frame Time: 0.03333333333333333
0.0000 93.1000 0.0000 -52.4011 -15.5372 -148.9210 -71.3560 -0.0569 87.8408 165.1174 50.7369 -72.6530 22.1192 26.5516 -7.4835 174.9256 16.2848 177.7437 -138.3190 54.4120 169.5150 0.0347 -20.2646 -10.1743 -106.6354 27.9107 -161.1818 -6.4893 49.9944 6.3594 11.8611 -1.3695 -1.7778 -1.0528 11.4397 21.7312 -77.0004 -35.8521 147.7942 45.7142 -7.0590 83.5100 10.7870 0.2195 -13.5933 21.7584 10.7681 77.0990 -170.1166 54.2493 167.1339 4.8404 1.0695 -0.7915 -11.2083 -46.4307 6.5061 -14.9088 -2.8020 82.5854 153.8861 74.8982 -130.1996 -11.8929 -15.7526 0.7977 13.9747 -33.9876 -6.4609 
0.0000 93.1000 0.0000 -50.2387 -13.7123 -151.4849 -71.2917 0.0538 88.0106 162.5857 50.6562 -74.6180 21.1810 26.3380 -8.7741 178.1409 16.6758 -179.5279 -140.1732 55.4610 173.3694 0.2623 -21.0773 -12.2348 -108.8200 27.5278 -158.3278 -5.2636 46.4283 5.2965 12.4228 -1.1415 -2.1346 -1.7042 10.7615 19.0482 -77.4823 -39.2196 151.9340 49.0675 -2.2493 89.5309 11.0161 -1.2525 -14.8810 26.9693 9.9701 78.5748 -166.6426 63.8243 163.2808 4.4131 -0.3626 -1.0262 -11.5578 -48.8297 5.8388 -19.7964 -3.6768 84.7019 124.0077 82.7620 -99.3380 -11.1624 -15.7338 0.9128 14.0309 -35.2035 -7.3776 
0.0000 93.1000 0.0000 -47.5790 -13.4437 -153.5486 -71.1559 -0.2767 88.1074 158.8852 51.8625 -76.0462 19.2479 25.5431 -9.1292 177.2898 15.7677 -177.9681 -140.2354 54.6621 173.7214 0.5689 -20.3584 -13.7206 -109.5124 24.8673 -154.2321 -3.0913 42.9168 3.2616 12.2317 -0.5468 -3.0353 -1.9557 8.9632 13.0918 -77.7129 -39.2735 154.6230 49.6992 2.8309 94.2409 11.9266 -2.2464 -15.4068 29.7903 11.0390 81.0709 -163.2622 74.2306 160.1420 4.0003 0.4971 -1.0025 -11.8236 -49.8507 6.5891 -24.6395 -5.0102 87.5034 33.0630 82.0743 -9.1803 -9.6010 -14.6307 0.1831 12.6072 -35.1985 -8.3899 
0.0000 93.1000 0.0000 -43.9109 -12.8024 -155.1535 -70.8475 0.1794 88.2037 153.6480 53.0155 -73.5602 16.6099 24.7925 -12.2595 -178.9737 16.2743 175.5367 -139.1069 53.7109 172.5147 -0.5190 -19.3598 -16.3892 -107.6511 20.9318 -150.0995 -2.2860 39.9722 -2.9776 10.7703 -1.2456 -2.5839 0.4262 7.7495 9.5930 -75.9886 -38.4616 153.8553 49.4252 5.4349 96.0354 13.6110 -1.3123 -12.9353 26.5531 12.8009 86.6260 -152.3847 81.0484 149.7420 3.5429 3.3455 -0.7236 -11.5030 -50.5825 7.7687 -32.1292 -8.0165 88.6233 10.9606 70.5095 13.7352 -10.6392 -14.8226 1.1527 13.5292 -33.5726 -9.5276 
0.0000 93.1000 0.0000 -42.3603 -15.0177 -154.9473 -70.8479 -0.0319 88.3599 149.9276 56.5762 -70.6085 15.4502 23.8217 -12.6662 -177.3223 15.8092 170.9998 -138.4651 52.5138 171.3484 0.1151 -18.1349 -18.7426 -102.6307 15.1884 -147.9439 2.2430 35.8823 -12.4941 11.9069 -1.0921 -2.2239 -0.6433 6.4922 12.9936 -70.8713 -36.9869 143.5567 51.9456 2.6622 93.5103 11.2215 -1.4979 -11.5118 19.1217 13.1376 91.0909 -142.1809 82.8744 135.4971 5.0481 2.5937 -1.0714 -11.6394 -48.9193 10.4911 -41.6214 -9.9849 88.7372 5.4392 59.9308 16.4395 -8.6360 -13.6523 1.2836 10.2022 -29.4226 -7.9139 
0.0000 93.1000 0.0000 -41.4280 -17.8863 -151.2490 -70.8879 0.5295 88.2642 145.7975 58.6238 -64.6157 14.6353 22.4627 -12.6699 -175.5321 15.6670 169.3244 -141.6732 51.8320 171.4314 0.3561 -15.9467 -20.0084 -87.5388 2.7841 -146.0361 10.9141 20.9706 -24.7919 12.1622 -0.7004 -1.9896 -0.8013 5.7779 18.3224 -63.0896 -38.1304 130.4692 45.6218 -7.8756 82.2354 7.4924 -1.1265 -10.0183 9.7706 11.0589 94.0438 -140.2520 82.8173 134.1113 7.6509 3.3246 -1.8241 -13.5638 -53.9168 3.0538 -51.8326 -6.8986 91.8272 3.7581 51.5307 9.2777 -6.3417 -7.4966 0.9381 -0.6476 -7.5136 5.4543 
0.0000 93.1000 0.0000 -39.6354 -22.9417 -146.7258 -70.8719 0.2815 87.8102 143.0056 59.7945 -59.5046 13.1288 21.0940 -11.5589 -171.7396 15.7750 168.7505 -145.2728 53.7369 173.0475 -0.0775 -13.7628 -21.2353 -88.6865 1.0038 -147.0246 19.5311 21.0535 -39.6846 12.0007 -1.0109 -1.0122 -0.8671 4.1568 21.4918 -55.9602 -43.8142 120.2749 27.9311 -18.2819 57.1445 3.4319 -0.4395 -8.5065 3.0099 6.8247 93.4828 -140.4180 82.9748 133.3773 7.7085 2.8000 -1.7462 -13.7713 -54.6949 3.6021 -58.6767 0.5919 94.4892 2.4728 55.5481 2.5164 -4.2121 2.3040 -0.2121 -18.3478 43.1467 11.8418 
0.0000 93.1000 0.0000 -33.6519 -28.9275 -146.5920 -70.9256 0.5497 87.6982 134.8513 61.1464 -56.6070 11.4453 20.1225 -7.9023 -169.8741 17.4801 167.8046 -148.7392 55.9059 173.7032 0.3789 -12.4903 -19.2479 -94.5610 4.4659 -154.0684 33.1150 21.8034 -57.7026 12.2445 -0.5490 0.2511 -0.9940 3.1340 23.9814 -52.2656 -50.7115 108.8771 17.9676 -25.0417 32.4887 2.5392 -1.0991 -8.8791 -3.5634 0.3377 93.9816 -120.7006 83.6646 110.1965 6.2832 0.5181 -1.1494 -14.4853 -51.9482 2.4751 -54.5664 1.2106 92.8049 10.3161 74.8879 -8.1894 -7.0902 4.0614 -0.2161 -8.5326 33.9818 -7.1002 
0.0000 93.1000 0.0000 -28.4038 -34.0552 -144.3235 -71.0305 0.6175 88.0416 130.7048 60.9403 -55.1828 9.6237 18.2994 -4.2754 -169.7784 19.6571 168.8732 -151.5486 58.5803 177.0168 0.8662 -10.1391 -10.4274 -103.4360 18.2773 -161.2110 35.2597 16.7100 -65.7233 15.9843 -0.0397 -0.1431 -0.9181 1.2486 28.1775 -66.8449 -54.7057 75.2630 16.6049 -25.9079 29.9272 1.4675 -0.9177 -6.5456 -11.3518 -5.9152 93.1583 -53.0177 83.7959 37.4405 5.0150 0.5308 -0.7722 -14.6119 -51.5379 0.6913 -44.4847 1.1746 88.5614 152.3863 80.9241 -152.1207 -7.2313 0.0947 0.6455 -1.4327 26.0109 -13.0422 
0.0000 93.1000 0.0000 -25.2359 -37.0864 -141.5624 -70.6611 0.2961 88.0621 127.8837 59.2569 -54.4479 6.3683 15.8159 -0.5479 -167.8341 18.4081 168.9471 -150.1757 57.4375 177.0377 0.6389 -7.1667 0.0784 -115.4966 38.9795 -156.0097 36.4182 13.1577 -71.8605 16.3412 -0.4865 -0.3081 -0.6070 1.8341 24.5745 -77.5496 -59.3172 48.7875 15.2429 -19.7843 35.9322 0.4421 -0.4352 -4.0659 -20.4248 -8.0302 92.5141 -19.1868 76.8898 1.4825 4.5963 -1.4943 -1.0226 -13.3494 -48.8581 2.5868 -30.8963 1.6143 86.4493 168.1423 63.9797 -171.9310 -7.3266 -3.8066 0.8460 5.0633 10.5319 -20.1280 
0.0000 93.1000 0.0000 -25.0548 -37.8564 -143.6052 -70.7218 -0.3834 88.0516 125.1880 57.6449 -52.4587 3.5379 14.3285 0.2822 -162.7828 15.9954 169.4746 -146.5948 53.7767 172.7417 0.4775 -5.7830 2.2926 -122.2820 40.6628 -146.9054 37.0140 12.3751 -72.9787 15.5702 -0.6051 -0.4713 -1.0355 5.6274 17.6349 -93.3255 -62.6906 21.0558 11.7167 -12.5008 37.9161 1.0393 -0.5781 -2.0233 -35.3921 -9.7534 90.0585 -8.1782 65.0404 -11.5601 4.2169 -2.4091 -1.1630 -11.2498 -45.5415 2.8159 -16.3838 2.2551 88.4157 169.3715 54.7864 -174.1353 -7.7830 -4.6904 1.1579 8.9453 -10.2218 -20.5200 
0.0000 93.1000 0.0000 -30.9812 -35.8417 -145.3533 -70.9588 -0.0975 87.8446 126.2626 59.4163 -48.4591 5.3712 15.7335 -1.5502 -161.8401 15.8726 169.5863 -144.0504 52.3992 168.1665 0.4630 -5.5413 1.0592 -111.5328 34.0791 -143.9562 35.2282 13.7735 -69.5221 12.3825 -0.6553 -0.6494 -0.9966 8.9402 15.3567 -105.2665 -59.9177 4.9227 5.1212 -4.1218 40.0878 0.5363 -0.1533 -0.2981 -52.1295 -8.5722 85.9527 -4.8988 50.1140 -16.6322 1.4083 -3.0376 -1.2601 -6.9197 -30.5699 4.0790 -4.5321 4.5333 89.4823 168.4735 57.6547 -170.0114 -7.8668 -7.1819 1.2002 10.9519 -22.6757 -17.7251 
